HIERARCHY
ROOT SpineBase
{
  OFFSET 0.000000 0.000000 0.000000
  CHANNELS 6 Xposition Yposition Zposition Zrotation Xrotation Yrotation
  JOINT SpineMid
  {
    OFFSET -0.000000 34.499217 0.000000
    CHANNELS 3 Zrotation Xrotation Yrotation
    JOINT SpineShoulder
    {
      OFFSET -0.202227 25.763902 -0.697217
      CHANNELS 3 Zrotation Xrotation Yrotation
      JOINT Neck
      {
        OFFSET -0.111542 8.590041 -0.572874
        CHANNELS 3 Zrotation Xrotation Yrotation
        JOINT Head
        {
          OFFSET 4.136744 9.830443 7.906545
          CHANNELS 3 Zrotation Xrotation Yrotation
          End Site
          {
            OFFSET 0 0 0
          }
        }
      }
      JOINT ShoulderLeft
      {
        OFFSET -0.650429 -0.420410 -9.734767
        CHANNELS 3 Zrotation Xrotation Yrotation
        JOINT ElbowLeft
        {
          OFFSET 15.377326 -22.091838 -11.893633
          CHANNELS 3 Zrotation Xrotation Yrotation
          JOINT WristLeft
          {
            OFFSET 8.140007 -19.327747 -1.595400
            CHANNELS 3 Zrotation Xrotation Yrotation
            JOINT HandLeft
            {
              OFFSET 2.219397 -9.098480 1.193006
              CHANNELS 3 Zrotation Xrotation Yrotation
              JOINT HandTipLeft
              {
                OFFSET 2.262628 -6.040642 -0.366628
                CHANNELS 3 Zrotation Xrotation Yrotation
                End Site
                {
                  OFFSET 0 0 0
                }
              }
              JOINT ThumbLeft
              {
                OFFSET -2.437305 0.214353 -1.078557
                CHANNELS 3 Zrotation Xrotation Yrotation
                End Site
                {
                  OFFSET 0 0 0
                }
              }
            }
          }
        }
      }
      JOINT ShoulderRight
      {
        OFFSET 7.527639 -1.530315 -14.795300
        CHANNELS 3 Zrotation Xrotation Yrotation
        JOINT ElbowRight
        {
          OFFSET 8.527436 -18.142403 -8.258252
          CHANNELS 3 Zrotation Xrotation Yrotation
          JOINT WristRight
          {
            OFFSET 7.399207 -26.863882 -0.002947
            CHANNELS 3 Zrotation Xrotation Yrotation
            JOINT HandRight
            {
              OFFSET 2.168072 -7.430411 1.522188
              CHANNELS 3 Zrotation Xrotation Yrotation
              JOINT HandTipRight
              {
                OFFSET 0.338278 -6.731063 0.488863
                CHANNELS 3 Zrotation Xrotation Yrotation
                End Site
                {
                  OFFSET 0 0 0
                }
              }
              JOINT ThumbRight
              {
                OFFSET 1.765655 1.009620 -2.161829
                CHANNELS 3 Zrotation Xrotation Yrotation
                End Site
                {
                  OFFSET 0 0 0
                }
              }
            }
          }
        }
      }
    }
  }
  JOINT HipLeft
  {
    OFFSET -5.650496 2.145378 -4.948225
    CHANNELS 3 Zrotation Xrotation Yrotation
    JOINT KneeLeft
    {
      OFFSET 24.456892 -23.106327 -12.097574
      CHANNELS 3 Zrotation Xrotation Yrotation
      JOINT AnkleLeft
      {
        OFFSET -5.818237 -34.924788 -3.880273
        CHANNELS 3 Zrotation Xrotation Yrotation
        JOINT FootLeft
        {
          OFFSET 6.781689 -4.028001 -2.617285
          CHANNELS 3 Zrotation Xrotation Yrotation
          End Site
          {
            OFFSET 0 0 0
          }
        }
      }
    }
  }
  JOINT HipRight
  {
    OFFSET 4.347977 1.226716 -1.521019
    CHANNELS 3 Zrotation Xrotation Yrotation
    JOINT KneeRight
    {
      OFFSET 4.765597 -32.173757 -1.462087
      CHANNELS 3 Zrotation Xrotation Yrotation
      JOINT AnkleRight
      {
        OFFSET 4.468783 -25.450143 -12.431050
        CHANNELS 3 Zrotation Xrotation Yrotation
        JOINT FootRight
        {
          OFFSET -6.336524 -2.932113 -14.800635
          CHANNELS 3 Zrotation Xrotation Yrotation
          End Site
          {
            OFFSET 0 0 0
          }
        }
      }
    }
  }
}
MOTION
Frames: 11
Frame Time: 0.033333
56.309094 66.594555 292.164894 6.089201 8.020623 0.315462 -1.259601 -0.106083 -0.633453 -1.118550 0.043318 0.078847 -18.437949 -7.743488 8.623118 0.000000 0.000000 0.000000 11.724473 10.007172 2.815792 1.413576 0.247949 2.453418 7.506484 11.165544 3.105255 -5.122045 -19.459315 -5.567035 0.000000 0.000000 0.000000 0.000000 0.000000 0.000000 -8.564330 -7.110882 1.334484 13.198440 1.706688 -1.772805 -0.967800 -2.172496 1.024563 8.385905 3.640514 -0.808586 0.000000 0.000000 0.000000 0.000000 0.000000 0.000000 -10.020300 -16.504198 -9.890419 -8.044730 4.209382 10.662210 -8.974565 11.646826 35.747977 0.000000 0.000000 0.000000 -9.992403 -12.014044 -2.287458 5.094509 -3.564386 -1.823218 -0.498174 0.018229 20.647598 0.000000 0.000000 0.000000
56.541115 67.273083 292.475185 6.151973 12.235573 -12.056548 -0.965976 -0.246523 11.524457 -0.615458 -0.679801 0.177123 -18.122158 -10.842801 6.607448 0.000000 0.000000 0.000000 8.631625 9.428474 5.874257 2.687198 0.416649 1.267635 7.793041 -1.899817 2.481387 -0.880401 -9.412227 -3.704035 0.000000 0.000000 0.000000 0.000000 0.000000 0.000000 -9.261507 -8.563672 1.747406 14.031531 0.755229 -1.979425 -2.014213 -5.120016 0.334141 15.130565 4.045130 -0.368204 0.000000 0.000000 0.000000 0.000000 0.000000 0.000000 -2.622402 -21.640052 2.299949 -13.584580 2.134318 12.404639 -10.967720 9.026970 36.748171 0.000000 0.000000 0.000000 -1.462384 -14.151640 11.203193 0.460300 -10.216342 -2.792336 -0.610381 2.779662 20.326777 0.000000 0.000000 0.000000
56.056770 68.616252 293.962124 5.734976 17.318131 -14.006247 -0.633083 0.147166 13.306094 -0.029139 -0.027481 0.288639 -12.776170 -17.891758 2.218858 0.000000 0.000000 0.000000 6.104267 8.818313 10.141651 2.634203 -0.349255 -0.445731 4.414466 -0.002885 0.557690 6.147590 -15.622785 -1.358868 0.000000 0.000000 0.000000 0.000000 0.000000 0.000000 -9.217001 -11.755181 2.072692 13.325162 -0.350119 -2.045320 -1.016150 -7.864150 0.074972 18.650999 4.747517 -0.516483 0.000000 0.000000 0.000000 0.000000 0.000000 0.000000 3.233841 -23.235513 6.613925 -18.620770 -1.362676 11.143892 -21.616975 2.571522 45.948355 0.000000 0.000000 0.000000 7.089556 -13.164420 15.216303 -7.190652 -18.435420 -3.864172 2.068995 2.627892 23.080988 0.000000 0.000000 0.000000
56.100991 70.555023 295.969242 6.258478 23.523997 6.805238 -0.309663 0.106432 -7.836506 0.008556 0.423351 0.341590 -1.803222 -26.926754 -2.239827 0.000000 0.000000 0.000000 3.785866 9.593737 14.773414 0.616250 -3.437116 -3.265364 5.475585 -8.483943 -0.461586 6.842872 -10.537619 -1.240473 0.000000 0.000000 0.000000 0.000000 0.000000 0.000000 -10.555934 -14.972126 2.604118 13.917199 -1.710806 -2.541990 -0.593916 -7.767598 0.343939 24.053345 3.353611 -0.270776 0.000000 0.000000 0.000000 0.000000 0.000000 0.000000 -4.435209 -25.699467 -13.103862 -20.759155 -4.226106 7.539910 -30.807454 -3.957966 56.077213 0.000000 0.000000 0.000000 5.352713 -19.440206 -4.555573 -12.206450 -23.966440 -4.810635 2.836203 5.577922 24.286044 0.000000 0.000000 0.000000
56.059351 72.485382 298.585748 6.982371 29.345293 42.796052 -0.106199 -0.023097 -44.224080 -0.111981 0.663484 0.354707 15.165259 -36.377791 -3.645388 0.000000 0.000000 0.000000 -0.395714 8.019509 18.416069 3.159984 -2.103381 -4.060772 1.145060 -12.130884 -3.827318 10.001178 -11.685162 0.276949 0.000000 0.000000 0.000000 0.000000 0.000000 0.000000 -11.378647 -17.839787 2.927445 13.216518 -2.331497 -2.797749 -0.962290 -6.969938 0.290262 29.610434 2.804322 0.387906 0.000000 0.000000 0.000000 0.000000 0.000000 0.000000 -17.922028 -19.805796 -46.884628 -24.579532 -9.086375 1.852281 -38.343865 -11.333494 64.276396 0.000000 0.000000 0.000000 -10.604423 -23.083771 -43.069131 -15.574589 -27.632064 -5.301054 3.881164 8.976786 24.756914 0.000000 0.000000 0.000000
55.882692 74.286610 301.490900 7.674156 34.400567 65.604376 0.151956 -0.104168 -67.464697 -0.087387 0.731259 0.410801 35.140004 -45.658136 2.082834 0.000000 0.000000 0.000000 -3.857614 7.735036 21.718222 3.444527 -2.505168 -5.608853 -3.279575 -9.434297 -7.547754 12.655758 -14.326697 2.713305 0.000000 0.000000 0.000000 0.000000 0.000000 0.000000 -12.772461 -19.692259 3.416878 11.912132 -3.359187 -3.515279 -1.854021 -10.375985 -1.199844 35.820812 9.388759 -0.965933 0.000000 0.000000 0.000000 0.000000 0.000000 0.000000 -25.244863 -10.038848 -64.714503 -22.460381 -11.057878 -4.199124 -47.274996 -21.148047 74.998482 0.000000 0.000000 0.000000 -22.815902 -19.941690 -67.146005 -19.525586 -30.499561 -5.688034 4.552291 12.946290 24.837818 0.000000 0.000000 0.000000
55.675540 75.900393 304.411000 8.386330 38.098531 75.621738 0.371813 -0.212186 -77.915891 -0.071979 0.703950 0.461186 50.227409 -49.509671 8.860721 0.000000 0.000000 0.000000 -4.611681 10.936690 25.047768 2.435575 -3.195142 -6.625683 -14.558498 2.367308 -14.813910 24.334209 -21.514044 10.704834 0.000000 0.000000 0.000000 0.000000 0.000000 0.000000 -15.566142 -22.099091 2.900753 11.514291 -2.017005 -4.150783 -4.156409 -9.498383 -2.633557 39.118063 11.936108 -0.343024 0.000000 0.000000 0.000000 0.000000 0.000000 0.000000 -27.903565 -1.473602 -69.595615 -17.648350 -11.609270 -9.787106 -52.986199 -26.780490 75.982366 0.000000 0.000000 0.000000 -30.010008 -16.272232 -77.400186 -21.219486 -31.614166 -5.689625 3.888292 17.347706 23.423859 0.000000 0.000000 0.000000
55.489785 77.027576 306.897115 8.850455 40.159263 78.829520 0.543363 -0.245832 -81.427873 -0.025140 0.613192 0.512028 58.562251 -50.878181 13.524806 0.000000 0.000000 0.000000 -5.548521 9.950152 25.602970 1.492848 -2.901826 -7.340777 -23.289749 15.498203 -18.788442 24.190727 -6.876486 19.930431 0.000000 0.000000 0.000000 0.000000 0.000000 0.000000 -18.435198 -22.592776 2.725793 10.658891 -1.407952 -5.215216 -4.879034 -8.275655 -3.564412 38.898070 12.744375 0.719909 0.000000 0.000000 0.000000 0.000000 0.000000 0.000000 -29.140985 5.295161 -68.762987 -9.512821 -11.392760 -14.175116 -58.330096 -29.617068 74.633792 0.000000 0.000000 0.000000 -34.372341 -13.109855 -80.895731 -18.172075 -30.700860 -5.487743 2.833013 16.849437 26.152733 0.000000 0.000000 0.000000
55.469809 77.710486 308.915907 9.041611 40.117769 79.578802 0.567731 -0.233151 -82.248721 -0.019988 0.478045 0.527728 58.882826 -50.716265 13.230067 0.000000 0.000000 0.000000 -7.029749 5.375244 23.497751 1.695053 -0.818120 -7.071337 -23.625665 25.416373 -15.030122 17.119352 -22.512219 12.095890 0.000000 0.000000 0.000000 0.000000 0.000000 0.000000 -21.094591 -20.392486 3.515139 8.916275 -2.166396 -7.057582 -2.849982 -9.072907 -4.110241 33.975968 13.943286 0.753104 0.000000 0.000000 0.000000 0.000000 0.000000 0.000000 -29.975114 11.977924 -66.065707 1.195632 -10.712947 -17.405520 -62.582053 -29.684964 69.938802 0.000000 0.000000 0.000000 -34.974174 -12.857987 -81.657667 -16.052984 -29.536728 -5.577203 0.537884 14.948398 34.663926 0.000000 0.000000 0.000000
55.475782 77.699561 310.060039 8.263442 37.389988 78.887095 0.482462 -0.120973 -81.133674 0.009047 0.247903 0.510207 50.887530 -49.171567 8.394374 0.000000 0.000000 0.000000 -8.855865 -3.883673 17.777143 2.933427 3.573736 -5.143829 -22.879998 35.203205 -5.553226 15.708533 -22.268513 12.981121 0.000000 0.000000 0.000000 0.000000 0.000000 0.000000 -24.734175 -19.938434 2.961445 9.940437 1.019140 -7.636589 -0.654255 -7.279320 -3.575869 26.291969 13.963950 0.860074 0.000000 0.000000 0.000000 0.000000 0.000000 0.000000 -30.535870 17.196324 -62.855722 13.233255 -8.492845 -18.840640 -65.062904 -28.729181 69.848367 0.000000 0.000000 0.000000 -32.213562 -14.728364 -80.776272 -13.409935 -28.326157 -6.017316 -4.219770 14.455300 39.662187 0.000000 0.000000 0.000000
55.941313 78.110212 310.721897 8.617911 37.765358 79.355616 0.419207 0.124623 -81.838840 -0.005033 0.016490 0.519367 48.573124 -49.053591 7.788801 0.000000 0.000000 0.000000 -15.473936 -18.971455 8.872358 6.125382 10.920681 -2.018299 -20.887949 38.483657 1.828126 16.823724 -22.039616 13.451005 0.000000 0.000000 0.000000 0.000000 0.000000 0.000000 -24.594227 -17.292284 4.653147 6.276998 -0.404511 -9.232527 1.566797 -3.929645 -2.362622 21.411013 9.721835 1.054679 0.000000 0.000000 0.000000 0.000000 0.000000 0.000000 -34.031169 23.358426 -60.665798 24.702228 -7.034248 -20.493749 -69.241587 -29.356335 67.587709 0.000000 0.000000 0.000000 -33.783063 -15.569739 -81.542289 -12.318189 -28.224223 -6.371997 -6.478155 15.743929 35.621479 0.000000 0.000000 0.000000
